<mxfile host="app.diagrams.net" modified="2022-01-16T21:28:55.459Z" agent="5.0 (Windows)" etag="j_S-vIdxVL8lc6IPKFVn" version="15.5.9" type="github">
  <diagram id="QjqTFTtFqSrhAlYeaR3x" name="Page-1">
    <mxGraphModel dx="782" dy="392" grid="1" gridSize="10" guides="1" tooltips="1" connect="1" arrows="1" fold="1" page="1" pageScale="1" pageWidth="850" pageHeight="1100" math="0" shadow="0">
      <root>
        <mxCell id="0" />
        <mxCell id="1" parent="0" />
        <mxCell id="xP50-ZumwaJ57tqfJRQX-25" style="edgeStyle=orthogonalEdgeStyle;rounded=0;orthogonalLoop=1;jettySize=auto;html=1;entryX=0.5;entryY=0;entryDx=0;entryDy=0;entryPerimeter=0;exitX=0.625;exitY=1;exitDx=0;exitDy=0;exitPerimeter=0;" edge="1" parent="1" source="xP50-ZumwaJ57tqfJRQX-4" target="xP50-ZumwaJ57tqfJRQX-12">
          <mxGeometry relative="1" as="geometry">
            <mxPoint x="680" y="120" as="targetPoint" />
          </mxGeometry>
        </mxCell>
        <mxCell id="xP50-ZumwaJ57tqfJRQX-4" value="Zookeeper for maintaining redis cluster" style="rounded=0;whiteSpace=wrap;html=1;fillColor=#dae8fc;strokeColor=#6c8ebf;" vertex="1" parent="1">
          <mxGeometry x="640" y="10" width="80" height="60" as="geometry" />
        </mxCell>
        <mxCell id="xP50-ZumwaJ57tqfJRQX-5" value="FANOUT (Async)" style="rounded=0;whiteSpace=wrap;html=1;fillColor=#dae8fc;strokeColor=#6c8ebf;" vertex="1" parent="1">
          <mxGeometry x="470" y="130" width="70" height="50" as="geometry" />
        </mxCell>
        <mxCell id="xP50-ZumwaJ57tqfJRQX-24" value="" style="edgeStyle=orthogonalEdgeStyle;rounded=0;orthogonalLoop=1;jettySize=auto;html=1;entryX=0;entryY=0;entryDx=0;entryDy=15;entryPerimeter=0;" edge="1" parent="1" source="xP50-ZumwaJ57tqfJRQX-6" target="xP50-ZumwaJ57tqfJRQX-12">
          <mxGeometry relative="1" as="geometry" />
        </mxCell>
        <mxCell id="xP50-ZumwaJ57tqfJRQX-6" value="Apache Storm / Heron" style="rounded=0;whiteSpace=wrap;html=1;fillColor=#dae8fc;strokeColor=#6c8ebf;" vertex="1" parent="1">
          <mxGeometry x="470" y="40" width="70" height="50" as="geometry" />
        </mxCell>
        <mxCell id="xP50-ZumwaJ57tqfJRQX-17" value="" style="edgeStyle=orthogonalEdgeStyle;rounded=0;orthogonalLoop=1;jettySize=auto;html=1;" edge="1" parent="1" source="xP50-ZumwaJ57tqfJRQX-7" target="xP50-ZumwaJ57tqfJRQX-9">
          <mxGeometry relative="1" as="geometry" />
        </mxCell>
        <mxCell id="xP50-ZumwaJ57tqfJRQX-27" style="edgeStyle=orthogonalEdgeStyle;rounded=0;orthogonalLoop=1;jettySize=auto;html=1;entryX=0;entryY=0.5;entryDx=0;entryDy=0;" edge="1" parent="1" source="xP50-ZumwaJ57tqfJRQX-7" target="xP50-ZumwaJ57tqfJRQX-10">
          <mxGeometry relative="1" as="geometry">
            <Array as="points">
              <mxPoint x="215" y="115" />
            </Array>
          </mxGeometry>
        </mxCell>
        <mxCell id="xP50-ZumwaJ57tqfJRQX-37" style="edgeStyle=orthogonalEdgeStyle;rounded=0;orthogonalLoop=1;jettySize=auto;html=1;startArrow=none;startFill=0;entryX=0;entryY=0.5;entryDx=0;entryDy=0;exitX=0.5;exitY=1;exitDx=0;exitDy=0;" edge="1" parent="1" source="xP50-ZumwaJ57tqfJRQX-7" target="xP50-ZumwaJ57tqfJRQX-8">
          <mxGeometry relative="1" as="geometry">
            <mxPoint x="215" y="300" as="targetPoint" />
          </mxGeometry>
        </mxCell>
        <mxCell id="xP50-ZumwaJ57tqfJRQX-7" value="Load Balancer" style="rounded=0;whiteSpace=wrap;html=1;fillColor=#d5e8d4;strokeColor=#82b366;" vertex="1" parent="1">
          <mxGeometry x="180" y="210" width="70" height="50" as="geometry" />
        </mxCell>
        <mxCell id="xP50-ZumwaJ57tqfJRQX-21" value="" style="edgeStyle=orthogonalEdgeStyle;rounded=0;orthogonalLoop=1;jettySize=auto;html=1;" edge="1" parent="1" source="xP50-ZumwaJ57tqfJRQX-8" target="xP50-ZumwaJ57tqfJRQX-9">
          <mxGeometry relative="1" as="geometry" />
        </mxCell>
        <mxCell id="xP50-ZumwaJ57tqfJRQX-8" value="HTTP Push Web Socket" style="rounded=0;whiteSpace=wrap;html=1;fillColor=#dae8fc;strokeColor=#6c8ebf;" vertex="1" parent="1">
          <mxGeometry x="300" y="320" width="70" height="50" as="geometry" />
        </mxCell>
        <mxCell id="xP50-ZumwaJ57tqfJRQX-18" value="" style="edgeStyle=orthogonalEdgeStyle;rounded=0;orthogonalLoop=1;jettySize=auto;html=1;exitX=1;exitY=0.75;exitDx=0;exitDy=0;" edge="1" parent="1" source="xP50-ZumwaJ57tqfJRQX-9" target="xP50-ZumwaJ57tqfJRQX-15">
          <mxGeometry relative="1" as="geometry" />
        </mxCell>
        <mxCell id="xP50-ZumwaJ57tqfJRQX-26" value="" style="edgeStyle=orthogonalEdgeStyle;rounded=0;orthogonalLoop=1;jettySize=auto;html=1;entryX=0.5;entryY=1;entryDx=0;entryDy=0;entryPerimeter=0;" edge="1" parent="1" source="xP50-ZumwaJ57tqfJRQX-9" target="xP50-ZumwaJ57tqfJRQX-12">
          <mxGeometry relative="1" as="geometry">
            <Array as="points">
              <mxPoint x="690" y="235" />
            </Array>
          </mxGeometry>
        </mxCell>
        <mxCell id="xP50-ZumwaJ57tqfJRQX-9" value="Timeline Service" style="rounded=0;whiteSpace=wrap;html=1;fillColor=#dae8fc;strokeColor=#6c8ebf;" vertex="1" parent="1">
          <mxGeometry x="300" y="210" width="70" height="50" as="geometry" />
        </mxCell>
        <mxCell id="xP50-ZumwaJ57tqfJRQX-22" value="" style="edgeStyle=orthogonalEdgeStyle;rounded=0;orthogonalLoop=1;jettySize=auto;html=1;exitX=1;exitY=0.75;exitDx=0;exitDy=0;" edge="1" parent="1" source="xP50-ZumwaJ57tqfJRQX-10" target="xP50-ZumwaJ57tqfJRQX-5">
          <mxGeometry relative="1" as="geometry" />
        </mxCell>
        <mxCell id="xP50-ZumwaJ57tqfJRQX-23" value="" style="edgeStyle=orthogonalEdgeStyle;rounded=0;orthogonalLoop=1;jettySize=auto;html=1;entryX=0;entryY=0.5;entryDx=0;entryDy=0;exitX=1;exitY=0.25;exitDx=0;exitDy=0;" edge="1" parent="1" source="xP50-ZumwaJ57tqfJRQX-10" target="xP50-ZumwaJ57tqfJRQX-6">
          <mxGeometry relative="1" as="geometry" />
        </mxCell>
        <mxCell id="xP50-ZumwaJ57tqfJRQX-10" value="Tweets Writer" style="rounded=0;whiteSpace=wrap;html=1;fillColor=#dae8fc;strokeColor=#6c8ebf;" vertex="1" parent="1">
          <mxGeometry x="300" y="90" width="70" height="50" as="geometry" />
        </mxCell>
        <mxCell id="xP50-ZumwaJ57tqfJRQX-16" value="" style="edgeStyle=orthogonalEdgeStyle;rounded=0;orthogonalLoop=1;jettySize=auto;html=1;" edge="1" parent="1" source="xP50-ZumwaJ57tqfJRQX-11" target="xP50-ZumwaJ57tqfJRQX-7">
          <mxGeometry relative="1" as="geometry" />
        </mxCell>
        <mxCell id="xP50-ZumwaJ57tqfJRQX-11" value="Clients" style="rounded=0;whiteSpace=wrap;html=1;fillColor=#f5f5f5;fontColor=#333333;strokeColor=#666666;" vertex="1" parent="1">
          <mxGeometry x="40" y="210" width="70" height="50" as="geometry" />
        </mxCell>
        <mxCell id="xP50-ZumwaJ57tqfJRQX-12" value="Redis Cluster" style="shape=cylinder3;whiteSpace=wrap;html=1;boundedLbl=1;backgroundOutline=1;size=15;fillColor=#fff2cc;strokeColor=#d6b656;" vertex="1" parent="1">
          <mxGeometry x="660" y="140" width="60" height="80" as="geometry" />
        </mxCell>
        <mxCell id="xP50-ZumwaJ57tqfJRQX-14" value="Database" style="shape=cylinder3;whiteSpace=wrap;html=1;boundedLbl=1;backgroundOutline=1;size=15;fillColor=#fff2cc;strokeColor=#d6b656;" vertex="1" parent="1">
          <mxGeometry x="310" y="10" width="60" height="60" as="geometry" />
        </mxCell>
        <mxCell id="xP50-ZumwaJ57tqfJRQX-15" value="Search Service" style="rounded=0;whiteSpace=wrap;html=1;fillColor=#dae8fc;strokeColor=#6c8ebf;" vertex="1" parent="1">
          <mxGeometry x="470" y="270" width="70" height="50" as="geometry" />
        </mxCell>
        <mxCell id="xP50-ZumwaJ57tqfJRQX-28" value="" style="edgeStyle=orthogonalEdgeStyle;rounded=0;orthogonalLoop=1;jettySize=auto;html=1;entryX=0;entryY=1;entryDx=0;entryDy=-15;entryPerimeter=0;exitX=0.5;exitY=1;exitDx=0;exitDy=0;" edge="1" parent="1" source="xP50-ZumwaJ57tqfJRQX-5" target="xP50-ZumwaJ57tqfJRQX-12">
          <mxGeometry relative="1" as="geometry">
            <mxPoint x="550" y="75" as="sourcePoint" />
            <mxPoint x="670" y="165" as="targetPoint" />
          </mxGeometry>
        </mxCell>
        <mxCell id="xP50-ZumwaJ57tqfJRQX-29" value="" style="edgeStyle=orthogonalEdgeStyle;rounded=0;orthogonalLoop=1;jettySize=auto;html=1;entryX=0;entryY=0.5;entryDx=0;entryDy=0;" edge="1" parent="1" target="xP50-ZumwaJ57tqfJRQX-15">
          <mxGeometry relative="1" as="geometry">
            <mxPoint x="420" y="130" as="sourcePoint" />
            <mxPoint x="480" y="165" as="targetPoint" />
            <Array as="points">
              <mxPoint x="420" y="160" />
              <mxPoint x="420" y="295" />
            </Array>
          </mxGeometry>
        </mxCell>
        <mxCell id="xP50-ZumwaJ57tqfJRQX-30" value="" style="endArrow=classic;html=1;rounded=0;entryX=0.5;entryY=1;entryDx=0;entryDy=0;entryPerimeter=0;startArrow=classic;startFill=1;" edge="1" parent="1" target="xP50-ZumwaJ57tqfJRQX-14">
          <mxGeometry width="50" height="50" relative="1" as="geometry">
            <mxPoint x="340" y="90" as="sourcePoint" />
            <mxPoint x="420" y="180" as="targetPoint" />
          </mxGeometry>
        </mxCell>
        <mxCell id="xP50-ZumwaJ57tqfJRQX-31" value="&lt;div&gt;Tweet&lt;/div&gt;&lt;div&gt;write&lt;br&gt;&lt;/div&gt;" style="text;html=1;strokeColor=none;fillColor=none;align=center;verticalAlign=middle;whiteSpace=wrap;rounded=0;" vertex="1" parent="1">
          <mxGeometry x="160" y="140" width="60" height="30" as="geometry" />
        </mxCell>
        <mxCell id="xP50-ZumwaJ57tqfJRQX-32" value="Home and User Timeline" style="text;html=1;strokeColor=none;fillColor=none;align=center;verticalAlign=middle;whiteSpace=wrap;rounded=0;" vertex="1" parent="1">
          <mxGeometry x="292.5" y="170" width="85" height="30" as="geometry" />
        </mxCell>
        <mxCell id="xP50-ZumwaJ57tqfJRQX-33" value="Trends data" style="text;html=1;strokeColor=none;fillColor=none;align=center;verticalAlign=middle;whiteSpace=wrap;rounded=0;" vertex="1" parent="1">
          <mxGeometry x="465" y="10" width="75" height="30" as="geometry" />
        </mxCell>
        <mxCell id="xP50-ZumwaJ57tqfJRQX-34" value="&lt;div&gt;Update cache&lt;/div&gt;&lt;div&gt;Entries for followers&lt;br&gt;&lt;/div&gt;" style="text;html=1;strokeColor=none;fillColor=none;align=center;verticalAlign=middle;whiteSpace=wrap;rounded=0;" vertex="1" parent="1">
          <mxGeometry x="475" y="100" width="115" height="30" as="geometry" />
        </mxCell>
        <mxCell id="xP50-ZumwaJ57tqfJRQX-35" value="Early bird (Based on Lucene)" style="text;html=1;strokeColor=none;fillColor=none;align=center;verticalAlign=middle;whiteSpace=wrap;rounded=0;" vertex="1" parent="1">
          <mxGeometry x="560" y="280" width="110" height="30" as="geometry" />
        </mxCell>
        <mxCell id="xP50-ZumwaJ57tqfJRQX-36" value="Persistent connection" style="text;html=1;strokeColor=none;fillColor=none;align=center;verticalAlign=middle;whiteSpace=wrap;rounded=0;" vertex="1" parent="1">
          <mxGeometry x="378" y="340" width="60" height="30" as="geometry" />
        </mxCell>
      </root>
    </mxGraphModel>
  </diagram>
</mxfile>
